<?xml version="1.0" encoding="UTF-8" standalone="no"?>
<!DOCTYPE svg PUBLIC "-//W3C//DTD SVG 1.1//EN"
 "http://www.w3.org/Graphics/SVG/1.1/DTD/svg11.dtd">
<!-- Generated by graphviz version 13.1.0 (20250701.0955)
 -->
<!-- Title: ags10_basic_init Pages: 1 -->
<svg width="265pt" height="354pt"
 viewBox="0.00 0.00 265.00 354.00" xmlns="http://www.w3.org/2000/svg" xmlns:xlink="http://www.w3.org/1999/xlink">
<g id="graph0" class="graph" transform="scale(1 1) rotate(0) translate(4 350)">
<title>ags10_basic_init</title>
<!-- Node1 -->
<g id="Node000001" class="node">
<title>Node1</title>
<g id="a_Node000001"><a xlink:title="basic example init">
<polygon fill="#999999" stroke="#666666" points="88.75,-192 0,-192 0,-172 88.75,-172 88.75,-192"/>
<text xml:space="preserve" text-anchor="middle" x="44.38" y="-178.5" font-family="Helvetica,sans-Serif" font-size="10.00">ags10_basic_init</text>
</a>
</g>
</g>
<!-- Node2 -->
<g id="Node000002" class="node">
<title>Node2</title>
<g id="a_Node000002"><a xlink:href="group__ags10__base__driver.html#gaefd13289d801f31dfa0d37fdbcbe674e" target="_top" xlink:title="initialize the chip">
<polygon fill="white" stroke="#666666" points="221,-346 160.75,-346 160.75,-326 221,-326 221,-346"/>
<text xml:space="preserve" text-anchor="middle" x="190.88" y="-332.5" font-family="Helvetica,sans-Serif" font-size="10.00">ags10_init</text>
</a>
</g>
</g>
<!-- Node1&#45;&gt;Node2 -->
<g id="edge1_Node000001_Node000002" class="edge">
<title>Node1&#45;&gt;Node2</title>
<g id="a_edge1_Node000001_Node000002"><a xlink:title=" ">
<path fill="none" stroke="#63b8ff" d="M48.45,-192.23C56.57,-217.43 80.99,-282.92 124.75,-317 131.94,-322.6 140.73,-326.55 149.49,-329.33"/>
<polygon fill="#63b8ff" stroke="#63b8ff" points="148.44,-332.67 159,-331.88 150.25,-325.91 148.44,-332.67"/>
</a>
</g>
</g>
<!-- Node3 -->
<g id="Node000003" class="node">
<title>Node3</title>
<g id="a_Node000003"><a xlink:href="group__ags10__interface__driver.html#gaf78a8a1349baf45ae3a1074bf36f54e4" target="_top" xlink:title="interface print format data">
<polygon fill="white" stroke="#666666" points="249.12,-308 132.62,-308 132.62,-276 249.12,-276 249.12,-308"/>
<text xml:space="preserve" text-anchor="start" x="140.62" y="-294.5" font-family="Helvetica,sans-Serif" font-size="10.00">ags10_interface_debug</text>
<text xml:space="preserve" text-anchor="middle" x="190.88" y="-282.5" font-family="Helvetica,sans-Serif" font-size="10.00">_print</text>
</a>
</g>
</g>
<!-- Node1&#45;&gt;Node3 -->
<g id="edge2_Node000001_Node000003" class="edge">
<title>Node1&#45;&gt;Node3</title>
<g id="a_edge2_Node000001_Node000003"><a xlink:title=" ">
<path fill="none" stroke="#63b8ff" d="M52.54,-192.32C65.22,-209.89 93.27,-245.78 124.75,-267 126.52,-268.19 128.36,-269.34 130.24,-270.44"/>
<polygon fill="#63b8ff" stroke="#63b8ff" points="128.15,-273.3 138.63,-274.87 131.42,-267.11 128.15,-273.3"/>
</a>
</g>
</g>
<!-- Node4 -->
<g id="Node000004" class="node">
<title>Node4</title>
<g id="a_Node000004"><a xlink:href="group__ags10__interface__driver.html#ga04b766edb819551a5e2c5e857975752c" target="_top" xlink:title="interface delay ms">
<polygon fill="white" stroke="#666666" points="257,-258 124.75,-258 124.75,-238 257,-238 257,-258"/>
<text xml:space="preserve" text-anchor="middle" x="190.88" y="-244.5" font-family="Helvetica,sans-Serif" font-size="10.00">ags10_interface_delay_ms</text>
</a>
</g>
</g>
<!-- Node1&#45;&gt;Node4 -->
<g id="edge3_Node000001_Node000004" class="edge">
<title>Node1&#45;&gt;Node4</title>
<g id="a_edge3_Node000001_Node000004"><a xlink:title=" ">
<path fill="none" stroke="#63b8ff" d="M60.28,-192.37C75.8,-202.8 101.1,-218.74 124.75,-229 128.83,-230.77 133.12,-232.43 137.47,-233.97"/>
<polygon fill="#63b8ff" stroke="#63b8ff" points="136.3,-237.27 146.89,-237.1 138.5,-230.63 136.3,-237.27"/>
</a>
</g>
</g>
<!-- Node5 -->
<g id="Node000005" class="node">
<title>Node5</title>
<g id="a_Node000005"><a xlink:href="group__ags10__interface__driver.html#gac4d5fc275905c71046cadda989ad946e" target="_top" xlink:title="interface iic bus deinit">
<polygon fill="white" stroke="#666666" points="240.88,-220 140.88,-220 140.88,-188 240.88,-188 240.88,-220"/>
<text xml:space="preserve" text-anchor="start" x="148.88" y="-206.5" font-family="Helvetica,sans-Serif" font-size="10.00">ags10_interface_iic</text>
<text xml:space="preserve" text-anchor="middle" x="190.88" y="-194.5" font-family="Helvetica,sans-Serif" font-size="10.00">_deinit</text>
</a>
</g>
</g>
<!-- Node1&#45;&gt;Node5 -->
<g id="edge4_Node000001_Node000005" class="edge">
<title>Node1&#45;&gt;Node5</title>
<g id="a_edge4_Node000001_Node000005"><a xlink:title=" ">
<path fill="none" stroke="#63b8ff" d="M89.12,-188.66C101.78,-190.59 115.82,-192.73 129.31,-194.78"/>
<polygon fill="#63b8ff" stroke="#63b8ff" points="128.55,-198.2 138.97,-196.25 129.61,-191.28 128.55,-198.2"/>
</a>
</g>
</g>
<!-- Node6 -->
<g id="Node000006" class="node">
<title>Node6</title>
<g id="a_Node000006"><a xlink:href="group__ags10__interface__driver.html#gae5cdb941b15dee1765cce2e24b543bd6" target="_top" xlink:title="interface iic bus init">
<polygon fill="white" stroke="#666666" points="249.88,-170 131.88,-170 131.88,-150 249.88,-150 249.88,-170"/>
<text xml:space="preserve" text-anchor="middle" x="190.88" y="-156.5" font-family="Helvetica,sans-Serif" font-size="10.00">ags10_interface_iic_init</text>
</a>
</g>
</g>
<!-- Node1&#45;&gt;Node6 -->
<g id="edge5_Node000001_Node000006" class="edge">
<title>Node1&#45;&gt;Node6</title>
<g id="a_edge5_Node000001_Node000006"><a xlink:title=" ">
<path fill="none" stroke="#63b8ff" d="M89.12,-175.34C99.05,-173.83 109.83,-172.19 120.52,-170.56"/>
<polygon fill="#63b8ff" stroke="#63b8ff" points="120.74,-174.07 130.1,-169.1 119.69,-167.15 120.74,-174.07"/>
</a>
</g>
</g>
<!-- Node7 -->
<g id="Node000007" class="node">
<title>Node7</title>
<g id="a_Node000007"><a xlink:href="group__ags10__interface__driver.html#ga4c9ad01fc4781f16bc1e801bd3c428a4" target="_top" xlink:title="interface iic bus read command">
<polygon fill="white" stroke="#666666" points="240.88,-132 140.88,-132 140.88,-100 240.88,-100 240.88,-132"/>
<text xml:space="preserve" text-anchor="start" x="148.88" y="-118.5" font-family="Helvetica,sans-Serif" font-size="10.00">ags10_interface_iic</text>
<text xml:space="preserve" text-anchor="middle" x="190.88" y="-106.5" font-family="Helvetica,sans-Serif" font-size="10.00">_read_cmd</text>
</a>
</g>
</g>
<!-- Node1&#45;&gt;Node7 -->
<g id="edge6_Node000001_Node000007" class="edge">
<title>Node1&#45;&gt;Node7</title>
<g id="a_edge6_Node000001_Node000007"><a xlink:title=" ">
<path fill="none" stroke="#63b8ff" d="M64.01,-171.63C79.92,-162.96 103.52,-150.52 124.75,-141 127.91,-139.58 131.17,-138.17 134.48,-136.78"/>
<polygon fill="#63b8ff" stroke="#63b8ff" points="135.78,-140.03 143.71,-133.01 133.13,-133.55 135.78,-140.03"/>
</a>
</g>
</g>
<!-- Node8 -->
<g id="Node000008" class="node">
<title>Node8</title>
<g id="a_Node000008"><a xlink:href="group__ags10__interface__driver.html#ga17dd977e25403577718fd166ac54893a" target="_top" xlink:title="interface iic bus write">
<polygon fill="white" stroke="#666666" points="240.88,-82 140.88,-82 140.88,-50 240.88,-50 240.88,-82"/>
<text xml:space="preserve" text-anchor="start" x="148.88" y="-68.5" font-family="Helvetica,sans-Serif" font-size="10.00">ags10_interface_iic</text>
<text xml:space="preserve" text-anchor="middle" x="190.88" y="-56.5" font-family="Helvetica,sans-Serif" font-size="10.00">_write</text>
</a>
</g>
</g>
<!-- Node1&#45;&gt;Node8 -->
<g id="edge7_Node000001_Node000008" class="edge">
<title>Node1&#45;&gt;Node8</title>
<g id="a_edge7_Node000001_Node000008"><a xlink:title=" ">
<path fill="none" stroke="#63b8ff" d="M51.97,-171.52C64.19,-152.89 92.1,-113.82 124.75,-91 126.57,-89.73 128.47,-88.5 130.42,-87.34"/>
<polygon fill="#63b8ff" stroke="#63b8ff" points="132.03,-90.45 139.2,-82.65 128.73,-84.27 132.03,-90.45"/>
</a>
</g>
</g>
<!-- Node9 -->
<g id="Node000009" class="node">
<title>Node9</title>
<g id="a_Node000009"><a xlink:href="group__ags10__interface__driver.html#ga479849915cd6a633a8afb2ff06d6e88e" target="_top" xlink:title="interface iic bus write command">
<polygon fill="white" stroke="#666666" points="240.88,-32 140.88,-32 140.88,0 240.88,0 240.88,-32"/>
<text xml:space="preserve" text-anchor="start" x="148.88" y="-18.5" font-family="Helvetica,sans-Serif" font-size="10.00">ags10_interface_iic</text>
<text xml:space="preserve" text-anchor="middle" x="190.88" y="-6.5" font-family="Helvetica,sans-Serif" font-size="10.00">_write_cmd</text>
</a>
</g>
</g>
<!-- Node1&#45;&gt;Node9 -->
<g id="edge8_Node000001_Node000009" class="edge">
<title>Node1&#45;&gt;Node9</title>
<g id="a_edge8_Node000001_Node000009"><a xlink:title=" ">
<path fill="none" stroke="#63b8ff" d="M48.5,-171.55C56.73,-145.75 81.38,-78.45 124.75,-41 126.65,-39.36 128.67,-37.82 130.77,-36.38"/>
<polygon fill="#63b8ff" stroke="#63b8ff" points="132.33,-39.52 139.16,-31.42 128.77,-33.5 132.33,-39.52"/>
</a>
</g>
</g>
</g>
</svg>
